<?xml version="1.0" standalone="no"?>
<!DOCTYPE svg PUBLIC "-//W3C//DTD SVG 20010904//EN" "http://www.w3.org/TR/2001/REC-SVG-20010904/DTD/svg10.dtd">
<svg version="1.0" xmlns="http://www.w3.org/2000/svg"
     width="310pt" height="310pt" viewBox="0 0 310 310"
     preserveAspectRatio="xMidYMid meet"
>
    <metadata>Escape Game</metadata>
    <g transform="translate(0.000000,310.000000) scale(0.100000,-0.100000)"
       fill="#000000" stroke="none">
        <path d="M1275 2760 c-561 -128 -965 -636 -965 -1215 0 -581 396 -1078 965
-1213 95 -23 133 -26 275 -27 124 0 186 5 248 18 431 95 760 373 921 779 55
140 76 263 76 453 0 191 -12 264 -72 425 -149 399 -482 688 -900 780 -49 11
-100 20 -115 20 -25 0 -27 -3 -33 -64 -4 -36 -5 -69 -1 -74 3 -5 27 -12 53
-15 84 -10 225 -56 328 -107 305 -150 538 -471 584 -804 78 -557 -251 -1071
-784 -1224 -56 -16 -191 -42 -219 -42 -3 0 -6 65 -6 145 l0 145 -64 0 c-143 0
-307 46 -433 122 -70 42 -174 137 -223 203 -74 100 -141 264 -152 370 l-3 30
71 3 72 3 12 -66 c25 -133 117 -283 228 -371 247 -196 584 -196 835 2 58 45
150 159 144 177 -1 5 -28 24 -60 43 l-57 33 -42 -55 c-66 -87 -188 -165 -295
-189 l-33 -7 0 75 0 74 43 13 c89 24 203 138 227 226 l12 43 152 3 151 3 -3
85 c-5 154 -55 289 -149 405 -48 60 -163 155 -186 155 -10 0 -83 -120 -75
-124 43 -24 127 -99 158 -140 40 -53 81 -142 95 -203 l7 -33 -74 0 -74 0 -18
55 c-22 72 -106 164 -184 202 -51 25 -68 28 -157 28 -89 0 -106 -3 -157 -28
-123 -60 -198 -172 -206 -306 -4 -78 16 -182 38 -196 5 -3 36 9 67 28 44 25
57 39 54 53 -2 10 -6 47 -8 81 -4 54 -1 69 23 114 67 123 232 148 337 50 107
-98 82 -280 -48 -349 -16 -8 -61 -18 -100 -21 l-70 -6 -3 -143 -3 -143 -32 6
c-233 51 -401 259 -401 500 0 281 204 491 496 512 l87 6 3 141 3 141 30 -3
c61 -6 178 -43 247 -78 232 -117 389 -330 434 -588 61 -345 -125 -703 -441
-852 -33 -16 -62 -30 -64 -31 -10 -6 44 -133 56 -133 27 0 158 71 224 120 180
135 306 326 361 547 30 123 30 312 0 436 -46 184 -135 340 -270 468 -477 456
-1253 305 -1528 -297 -19 -42 -31 -80 -27 -84 9 -8 112 -45 127 -45 4 0 16 18
25 40 43 106 89 173 181 265 103 103 183 154 305 195 77 26 171 45 180 37 3
-3 5 -36 5 -73 l0 -67 -67 -12 c-38 -8 -106 -32 -157 -58 -173 -86 -312 -266
-346 -445 l-12 -67 -149 0 -149 0 0 -67 c0 -454 328 -856 765 -939 50 -9 96
-18 103 -20 8 -2 12 -26 12 -74 l0 -71 -47 6 c-264 35 -479 140 -659 322 -132
133 -229 303 -281 492 -25 87 -27 113 -27 276 -1 167 1 187 27 280 109 389
410 687 787 780 58 14 117 27 131 30 25 5 26 7 22 52 -8 89 -10 93 -46 92 -17
0 -68 -9 -112 -19z"/>
    </g>
</svg>
